<svg xmlns="http://www.w3.org/2000/svg" viewBox="-100 -100 200 200"><path d="M10.4,-76 L60.6,-47 Q71,-41 71,-29 L71,29 Q71,41 60.6,47 L10.4,76 Q0,82 -10.4,76 L-60.6,47 Q-71,41 -71,29 L-71,-29 Q-71,-41 -60.6,-47 L-10.4,-76 Q0,-82 10.4,-76 Z" fill="none" stroke="#EE862B" stroke-width="11"></path><g fill="#EE862B"><path d="M2.66,-9.29 L2.99,-11.02 L3.25,-12.73 L3.46,-14.42 L3.61,-16.11 L3.7,-17.77 L3.72,-19.43 L3.69,-21.06 L3.59,-22.68 L3.43,-24.28 L3.21,-25.87 L2.94,-27.43 L2.6,-28.98 L2.2,-30.51 L1.74,-32.02 L1.23,-33.51 L0.65,-34.99 L-3.05,-33.65 L-2.66,-32.28 L-2.32,-30.9 L-2.05,-29.52 L-1.82,-28.13 L-1.65,-26.74 L-1.54,-25.33 L-1.48,-23.92 L-1.47,-22.5 L-1.52,-21.08 L-1.62,-19.64 L-1.78,-18.19 L-1.99,-16.73 L-2.25,-15.27 L-2.56,-13.79 L-2.93,-12.3 L-3.36,-10.8 Z"></path><path d="M0.72,-34.74 L0.39,-35.84 L0.03,-36.93 L-0.37,-37.98 L-0.79,-39 L-1.25,-40 L-1.74,-40.97 L-2.26,-41.91 L-2.81,-42.82 L-3.39,-43.7 L-3.99,-44.55 L-4.63,-45.37 L-5.29,-46.16 L-5.99,-46.92 L-6.71,-47.65 L-7.46,-48.35 L-8.23,-49.03 L-9.39,-47.82 L-8.76,-47.09 L-8.17,-46.35 L-7.61,-45.59 L-7.08,-44.8 L-6.58,-44 L-6.11,-43.18 L-5.68,-42.34 L-5.28,-41.48 L-4.9,-40.61 L-4.56,-39.71 L-4.25,-38.79 L-3.96,-37.85 L-3.71,-36.9 L-3.48,-35.92 L-3.29,-34.92 L-3.12,-33.9 Z"></path><path d="M-8.16,-48.95 L-8.65,-49.51 L-9.15,-50.06 L-9.66,-50.57 L-10.18,-51.07 L-10.71,-51.54 L-11.26,-51.98 L-11.81,-52.41 L-12.38,-52.8 L-12.95,-53.18 L-13.54,-53.52 L-14.14,-53.85 L-14.74,-54.15 L-15.36,-54.42 L-15.99,-54.67 L-16.63,-54.89 L-17.27,-55.09 L-17.62,-53.98 L-17.03,-53.76 L-16.45,-53.52 L-15.88,-53.26 L-15.32,-52.98 L-14.77,-52.68 L-14.24,-52.36 L-13.71,-52.01 L-13.2,-51.64 L-12.7,-51.25 L-12.2,-50.84 L-11.72,-50.4 L-11.25,-49.95 L-10.79,-49.47 L-10.34,-48.97 L-9.9,-48.45 L-9.47,-47.9 Z"></path><path d="M-8.12,-47.95 L-7.76,-48.52 L-7.41,-49.1 L-7.1,-49.69 L-6.8,-50.27 L-6.53,-50.86 L-6.28,-51.45 L-6.06,-52.05 L-5.86,-52.65 L-5.69,-53.25 L-5.54,-53.86 L-5.42,-54.46 L-5.32,-55.07 L-5.24,-55.68 L-5.19,-56.3 L-5.16,-56.91 L-5.15,-57.53 L-6.33,-57.54 L-6.36,-56.97 L-6.42,-56.41 L-6.49,-55.85 L-6.6,-55.29 L-6.72,-54.74 L-6.86,-54.19 L-7.03,-53.64 L-7.21,-53.1 L-7.42,-52.57 L-7.65,-52.03 L-7.91,-51.5 L-8.18,-50.98 L-8.48,-50.45 L-8.8,-49.93 L-9.14,-49.41 L-9.5,-48.9 Z"></path><path d="M-0.24,-32.59 L0.64,-33.18 L1.48,-33.79 L2.3,-34.42 L3.08,-35.06 L3.83,-35.73 L4.54,-36.42 L5.23,-37.12 L5.88,-37.84 L6.49,-38.58 L7.07,-39.34 L7.62,-40.12 L8.13,-40.91 L8.61,-41.72 L9.06,-42.54 L9.47,-43.39 L9.85,-44.24 L8.36,-45.01 L7.89,-44.28 L7.39,-43.57 L6.87,-42.89 L6.32,-42.23 L5.75,-41.6 L5.15,-40.98 L4.53,-40.39 L3.89,-39.83 L3.22,-39.28 L2.53,-38.76 L1.81,-38.25 L1.07,-37.77 L0.3,-37.31 L-0.49,-36.86 L-1.31,-36.44 L-2.15,-36.04 Z"></path><path d="M9.79,-44.15 L10.16,-44.72 L10.5,-45.3 L10.82,-45.89 L11.11,-46.47 L11.38,-47.06 L11.63,-47.66 L11.85,-48.25 L12.05,-48.85 L12.22,-49.45 L12.37,-50.06 L12.5,-50.66 L12.6,-51.27 L12.68,-51.88 L12.73,-52.5 L12.76,-53.11 L12.76,-53.73 L11.59,-53.75 L11.55,-53.18 L11.5,-52.61 L11.42,-52.05 L11.32,-51.49 L11.2,-50.94 L11.05,-50.39 L10.89,-49.85 L10.7,-49.31 L10.49,-48.77 L10.26,-48.23 L10.01,-47.7 L9.73,-47.18 L9.44,-46.65 L9.12,-46.13 L8.78,-45.62 L8.41,-45.1 Z"></path><path d="M8.84,-43.83 L9.44,-43.66 L10.04,-43.51 L10.63,-43.39 L11.22,-43.29 L11.81,-43.2 L12.39,-43.15 L12.97,-43.11 L13.55,-43.09 L14.12,-43.1 L14.69,-43.13 L15.25,-43.18 L15.81,-43.25 L16.37,-43.35 L16.92,-43.46 L17.46,-43.6 L18,-43.76 L17.68,-44.89 L17.18,-44.77 L16.67,-44.67 L16.16,-44.6 L15.65,-44.54 L15.14,-44.51 L14.63,-44.49 L14.12,-44.49 L13.6,-44.52 L13.08,-44.56 L12.56,-44.62 L12.03,-44.71 L11.5,-44.81 L10.97,-44.93 L10.44,-45.08 L9.9,-45.24 L9.36,-45.42 Z"></path><path d="M7.19,6.46 L8.46,7.4 L9.75,8.29 L11.04,9.13 L12.35,9.91 L13.68,10.63 L15.01,11.3 L16.35,11.91 L17.71,12.47 L19.07,12.97 L20.45,13.41 L21.83,13.8 L23.22,14.13 L24.62,14.41 L26.03,14.63 L27.44,14.79 L28.86,14.9 L29.28,10.99 L28.04,10.76 L26.8,10.48 L25.59,10.16 L24.4,9.79 L23.22,9.37 L22.05,8.91 L20.9,8.4 L19.77,7.84 L18.65,7.24 L17.54,6.59 L16.45,5.89 L15.37,5.15 L14.3,4.36 L13.25,3.53 L12.21,2.65 L11.17,1.72 Z"></path><path d="M28.61,14.86 L29.64,15.02 L30.66,15.14 L31.67,15.23 L32.67,15.28 L33.66,15.3 L34.64,15.28 L35.61,15.23 L36.56,15.13 L37.5,15.01 L38.43,14.84 L39.35,14.64 L40.25,14.41 L41.14,14.14 L42.01,13.84 L42.87,13.51 L43.72,13.14 L43.14,11.57 L42.31,11.78 L41.48,11.96 L40.65,12.1 L39.81,12.21 L38.97,12.29 L38.13,12.34 L37.29,12.35 L36.45,12.33 L35.6,12.28 L34.74,12.19 L33.89,12.08 L33.03,11.93 L32.16,11.75 L31.29,11.55 L30.42,11.3 L29.54,11.03 Z"></path><path d="M43.62,13.17 L44.27,13 L44.9,12.81 L45.52,12.6 L46.13,12.37 L46.72,12.12 L47.3,11.85 L47.86,11.57 L48.4,11.27 L48.93,10.95 L49.44,10.61 L49.94,10.25 L50.42,9.88 L50.88,9.48 L51.33,9.07 L51.76,8.64 L52.18,8.2 L51.33,7.39 L50.92,7.78 L50.5,8.16 L50.07,8.51 L49.62,8.85 L49.17,9.17 L48.7,9.47 L48.21,9.75 L47.72,10.02 L47.21,10.27 L46.68,10.5 L46.14,10.71 L45.59,10.91 L45.03,11.09 L44.45,11.26 L43.86,11.41 L43.25,11.54 Z"></path><path d="M42.7,12.76 L43.03,13.29 L43.36,13.79 L43.71,14.28 L44.07,14.75 L44.44,15.2 L44.82,15.63 L45.22,16.05 L45.63,16.44 L46.05,16.82 L46.48,17.18 L46.92,17.52 L47.38,17.84 L47.84,18.14 L48.32,18.42 L48.81,18.69 L49.31,18.93 L49.83,17.89 L49.39,17.64 L48.96,17.37 L48.54,17.08 L48.14,16.78 L47.74,16.47 L47.36,16.14 L46.99,15.79 L46.63,15.43 L46.28,15.05 L45.95,14.65 L45.62,14.24 L45.31,13.82 L45,13.37 L44.71,12.91 L44.43,12.44 L44.16,11.94 Z"></path><path d="M27.11,13.05 L27.24,13.99 L27.41,14.92 L27.6,15.83 L27.82,16.72 L28.07,17.59 L28.35,18.44 L28.66,19.27 L29,20.08 L29.36,20.87 L29.75,21.63 L30.17,22.38 L30.62,23.11 L31.09,23.81 L31.59,24.5 L32.11,25.16 L32.66,25.8 L34,24.79 L33.61,24.12 L33.24,23.45 L32.91,22.76 L32.6,22.06 L32.32,21.35 L32.07,20.63 L31.85,19.9 L31.65,19.16 L31.48,18.41 L31.34,17.65 L31.23,16.88 L31.14,16.1 L31.07,15.3 L31.04,14.49 L31.02,13.67 L31.04,12.84 Z"></path><path d="M32.6,25.71 L32.92,26.23 L33.26,26.73 L33.61,27.22 L33.97,27.69 L34.34,28.14 L34.72,28.57 L35.12,28.99 L35.53,29.38 L35.95,29.76 L36.38,30.12 L36.82,30.46 L37.27,30.78 L37.74,31.08 L38.22,31.37 L38.71,31.63 L39.2,31.88 L39.73,30.83 L39.29,30.58 L38.86,30.31 L38.44,30.03 L38.03,29.73 L37.64,29.41 L37.26,29.08 L36.89,28.73 L36.53,28.37 L36.18,27.99 L35.84,27.6 L35.52,27.19 L35.2,26.76 L34.9,26.32 L34.61,25.86 L34.33,25.38 L34.06,24.89 Z"></path><path d="M32.73,24.71 L32.36,25.13 L32,25.56 L31.67,25.99 L31.35,26.43 L31.06,26.88 L30.78,27.33 L30.52,27.78 L30.29,28.24 L30.07,28.71 L29.87,29.18 L29.69,29.66 L29.53,30.14 L29.39,30.63 L29.26,31.12 L29.16,31.62 L29.08,32.12 L30.23,32.32 L30.34,31.87 L30.46,31.43 L30.6,31 L30.75,30.57 L30.93,30.14 L31.11,29.73 L31.32,29.32 L31.54,28.91 L31.78,28.51 L32.04,28.12 L32.31,27.73 L32.6,27.35 L32.91,26.97 L33.23,26.6 L33.57,26.24 L33.93,25.88 Z"></path><path d="M-9.64,0.68 L-11.26,0.95 L-12.85,1.26 L-14.4,1.63 L-15.93,2.04 L-17.42,2.5 L-18.88,3.01 L-20.3,3.57 L-21.69,4.18 L-23.05,4.83 L-24.37,5.54 L-25.66,6.29 L-26.91,7.08 L-28.12,7.92 L-29.3,8.81 L-30.44,9.75 L-31.55,10.73 L-29.02,13.75 L-27.95,12.98 L-26.85,12.25 L-25.74,11.58 L-24.59,10.95 L-23.43,10.36 L-22.24,9.82 L-21.03,9.33 L-19.8,8.88 L-18.54,8.47 L-17.25,8.11 L-15.94,7.79 L-14.61,7.52 L-13.24,7.28 L-11.85,7.09 L-10.44,6.95 L-9,6.85 Z"></path><path d="M-31.34,10.57 L-32.2,11.22 L-33.03,11.89 L-33.83,12.58 L-34.59,13.29 L-35.31,14.01 L-36,14.75 L-36.66,15.51 L-37.28,16.29 L-37.86,17.08 L-38.41,17.89 L-38.93,18.71 L-39.41,19.55 L-39.85,20.4 L-40.26,21.27 L-40.63,22.15 L-40.97,23.05 L-39.43,23.73 L-39,22.95 L-38.53,22.2 L-38.04,21.47 L-37.52,20.76 L-36.98,20.08 L-36.41,19.41 L-35.81,18.77 L-35.18,18.15 L-34.53,17.55 L-33.86,16.97 L-33.15,16.41 L-32.42,15.87 L-31.67,15.35 L-30.88,14.85 L-30.07,14.36 L-29.23,13.9 Z"></path><path d="M-40.92,22.95 L-41.26,23.56 L-41.57,24.18 L-41.86,24.79 L-42.13,25.41 L-42.37,26.02 L-42.59,26.64 L-42.78,27.27 L-42.95,27.89 L-43.09,28.51 L-43.2,29.14 L-43.3,29.77 L-43.36,30.4 L-43.41,31.02 L-43.42,31.65 L-43.42,32.29 L-43.38,32.92 L-42.21,32.86 L-42.21,32.28 L-42.19,31.7 L-42.14,31.12 L-42.07,30.54 L-41.98,29.97 L-41.87,29.4 L-41.73,28.83 L-41.57,28.27 L-41.39,27.7 L-41.19,27.14 L-40.96,26.58 L-40.71,26.03 L-40.44,25.47 L-40.14,24.92 L-39.83,24.37 L-39.49,23.82 Z"></path><path d="M-39.99,22.58 L-40.61,22.44 L-41.23,22.33 L-41.84,22.24 L-42.45,22.17 L-43.06,22.12 L-43.66,22.09 L-44.25,22.09 L-44.84,22.11 L-45.42,22.15 L-46,22.21 L-46.57,22.3 L-47.14,22.4 L-47.7,22.53 L-48.25,22.68 L-48.8,22.86 L-49.35,23.05 L-48.96,24.16 L-48.45,24.01 L-47.94,23.88 L-47.43,23.77 L-46.91,23.68 L-46.39,23.61 L-45.86,23.56 L-45.34,23.54 L-44.8,23.53 L-44.27,23.54 L-43.73,23.58 L-43.19,23.63 L-42.64,23.7 L-42.09,23.8 L-41.54,23.91 L-40.98,24.04 L-40.41,24.2 Z"></path><path d="M-28.99,10.75 L-29.79,10.17 L-30.6,9.62 L-31.41,9.11 L-32.24,8.63 L-33.06,8.19 L-33.9,7.79 L-34.74,7.42 L-35.58,7.08 L-36.43,6.78 L-37.28,6.52 L-38.14,6.29 L-39,6.1 L-39.87,5.94 L-40.73,5.82 L-41.61,5.73 L-42.48,5.67 L-42.69,7.34 L-41.9,7.52 L-41.13,7.74 L-40.37,7.98 L-39.62,8.25 L-38.89,8.55 L-38.17,8.88 L-37.46,9.24 L-36.77,9.63 L-36.08,10.04 L-35.41,10.48 L-34.74,10.95 L-34.09,11.45 L-33.45,11.97 L-32.82,12.53 L-32.19,13.11 L-31.58,13.72 Z"></path><path d="M-42.37,5.7 L-42.99,5.56 L-43.61,5.44 L-44.22,5.35 L-44.83,5.28 L-45.44,5.23 L-46.04,5.21 L-46.63,5.21 L-47.22,5.22 L-47.8,5.26 L-48.38,5.33 L-48.95,5.41 L-49.52,5.52 L-50.08,5.65 L-50.64,5.8 L-51.18,5.97 L-51.73,6.17 L-51.34,7.27 L-50.83,7.12 L-50.32,6.99 L-49.81,6.89 L-49.29,6.8 L-48.77,6.73 L-48.24,6.68 L-47.72,6.65 L-47.19,6.65 L-46.65,6.66 L-46.11,6.69 L-45.57,6.75 L-45.02,6.82 L-44.47,6.91 L-43.92,7.03 L-43.36,7.16 L-42.79,7.32 Z"></path><path d="M-41.75,6.48 L-41.79,5.9 L-41.85,5.33 L-41.93,4.76 L-42.03,4.21 L-42.15,3.67 L-42.29,3.14 L-42.44,2.62 L-42.61,2.11 L-42.8,1.61 L-43.01,1.12 L-43.24,0.65 L-43.48,0.18 L-43.74,-0.28 L-44.02,-0.72 L-44.31,-1.16 L-44.63,-1.58 L-45.58,-0.89 L-45.32,-0.49 L-45.07,-0.08 L-44.85,0.34 L-44.64,0.77 L-44.44,1.2 L-44.27,1.64 L-44.11,2.09 L-43.97,2.55 L-43.84,3.02 L-43.73,3.5 L-43.64,3.98 L-43.56,4.47 L-43.5,4.98 L-43.46,5.49 L-43.43,6.01 L-43.42,6.53 Z"></path></g><g fill="#EE862B"><circle cx="-1.2" cy="-34.32" r="2.72"></circle><circle cx="-8.81" cy="-48.42" r="1.59"></circle><circle cx="-17.45" cy="-54.53" r="2.18"></circle><circle cx="-5.74" cy="-57.54" r="2.18"></circle><circle cx="9.1" cy="-44.62" r="1.59"></circle><circle cx="12.17" cy="-53.74" r="2.18"></circle><circle cx="17.84" cy="-44.32" r="2.18"></circle><circle cx="29.07" cy="12.94" r="2.72"></circle><circle cx="43.43" cy="12.35" r="1.59"></circle><circle cx="51.75" cy="7.8" r="2.18"></circle><circle cx="49.57" cy="18.41" r="2.18"></circle><circle cx="33.33" cy="25.3" r="1.59"></circle><circle cx="39.47" cy="31.35" r="2.18"></circle><circle cx="29.65" cy="32.22" r="2.18"></circle><circle cx="-30.28" cy="12.24" r="2.72"></circle><circle cx="-40.2" cy="23.39" r="1.59"></circle><circle cx="-42.8" cy="32.89" r="2.18"></circle><circle cx="-49.15" cy="23.6" r="2.18"></circle><circle cx="-42.58" cy="6.51" r="1.59"></circle><circle cx="-51.53" cy="6.72" r="2.18"></circle><circle cx="-45.1" cy="-1.24" r="2.18"></circle><circle r="15"></circle></g></svg>
