<svg width="820" height="540" viewBox="0 0 820 540" fill="none" xmlns="http://www.w3.org/2000/svg" role="img" aria-label="Sello uygulama arayüzü (temsilî)">
  <defs>
    <linearGradient id="mtitle" x1="0" y1="0" x2="0" y2="56" gradientUnits="userSpaceOnUse">
      <stop offset="0" stop-color="#1f93d0"/><stop offset="1" stop-color="#1380bd"/>
    </linearGradient>
    <filter id="mshadow" x="-10%" y="-10%" width="120%" height="125%">
      <feDropShadow dx="0" dy="14" stdDeviation="22" flood-color="#173a52" flood-opacity="0.22"/>
    </filter>
  </defs>

  <g filter="url(#mshadow)">
    <rect x="30" y="24" width="760" height="492" rx="14" fill="#ffffff" stroke="#e3e8ec"/>
    <!-- başlık çubuğu -->
    <path d="M30 38 a14 14 0 0 1 14 -14 h732 a14 14 0 0 1 14 14 v18 H30 Z" fill="url(#mtitle)"/>
    <rect x="30" y="38" width="760" height="18" fill="url(#mtitle)"/>
    <circle cx="754" cy="38" r="5" fill="#ffffff" fill-opacity="0.85"/>
    <text x="52" y="44" font-family="Segoe UI, system-ui, sans-serif" font-size="15" font-weight="700" fill="#ffffff">Sello v0.1.3</text>
  </g>

  <!-- gövde -->
  <text x="64" y="104" font-family="Segoe UI, system-ui, sans-serif" font-size="20" font-weight="700" fill="#243038">E-Devlet Kapısı'na e-imza ile giriş</text>

  <!-- Kart Tipi -->
  <text x="64" y="148" font-family="Segoe UI, system-ui, sans-serif" font-size="13" fill="#6b7782">Kart Tipi</text>
  <rect x="64" y="156" width="320" height="42" rx="8" fill="#f4f7f9" stroke="#d9e0e5"/>
  <text x="80" y="182" font-family="Segoe UI, system-ui, sans-serif" font-size="14" fill="#2f3b43">Tubitak AKİS</text>
  <path d="M356 173 l8 8 l8 -8" stroke="#8a97a0" stroke-width="2" fill="none" stroke-linecap="round"/>

  <!-- İşlem Kodu -->
  <text x="64" y="228" font-family="Segoe UI, system-ui, sans-serif" font-size="13" fill="#6b7782">İşlem Kodu</text>
  <rect x="64" y="236" width="320" height="42" rx="8" fill="#ffffff" stroke="#1689CA" stroke-width="1.5"/>
  <text x="80" y="262" font-family="Consolas, monospace" font-size="16" fill="#2f3b43" letter-spacing="4">A7K9</text>
  <rect x="138" y="248" width="2" height="18" fill="#1689CA"><animate attributeName="opacity" values="1;0;1" dur="1s" repeatCount="indefinite"/></rect>

  <!-- dağınık PIN pad -->
  <text x="470" y="148" font-family="Segoe UI, system-ui, sans-serif" font-size="13" fill="#6b7782">PIN (tuşlar her seferinde karışır)</text>
  <g font-family="Segoe UI, system-ui, sans-serif" font-size="18" font-weight="600" fill="#2f3b43" text-anchor="middle">
    <g>
      <rect x="470" y="160" width="64" height="52" rx="8" fill="#f4f7f9" stroke="#dde4e9"/><text x="502" y="192">7</text>
      <rect x="546" y="160" width="64" height="52" rx="8" fill="#f4f7f9" stroke="#dde4e9"/><text x="578" y="192">2</text>
      <rect x="622" y="160" width="64" height="52" rx="8" fill="#f4f7f9" stroke="#dde4e9"/><text x="654" y="192">9</text>
      <rect x="470" y="222" width="64" height="52" rx="8" fill="#f4f7f9" stroke="#dde4e9"/><text x="502" y="254">4</text>
      <rect x="546" y="222" width="64" height="52" rx="8" fill="#f4f7f9" stroke="#dde4e9"/><text x="578" y="254">0</text>
      <rect x="622" y="222" width="64" height="52" rx="8" fill="#f4f7f9" stroke="#dde4e9"/><text x="654" y="254">5</text>
      <rect x="470" y="284" width="64" height="52" rx="8" fill="#f4f7f9" stroke="#dde4e9"/><text x="502" y="316">1</text>
      <rect x="546" y="284" width="64" height="52" rx="8" fill="#f4f7f9" stroke="#dde4e9"/><text x="578" y="316">8</text>
      <rect x="622" y="284" width="64" height="52" rx="8" fill="#f4f7f9" stroke="#dde4e9"/><text x="654" y="316">3</text>
    </g>
  </g>

  <!-- sözleşme satırları -->
  <rect x="64" y="316" width="320" height="92" rx="8" fill="#fafbfc" stroke="#e6ebee"/>
  <rect x="80" y="334" width="240" height="7" rx="3.5" fill="#dde4e9"/>
  <rect x="80" y="352" width="288" height="7" rx="3.5" fill="#e7ecef"/>
  <rect x="80" y="370" width="200" height="7" rx="3.5" fill="#e7ecef"/>
  <rect x="80" y="388" width="150" height="7" rx="3.5" fill="#e7ecef"/>

  <!-- İMZALA butonu -->
  <rect x="470" y="356" width="216" height="52" rx="9" fill="#1689CA"/>
  <text x="578" y="389" font-family="Segoe UI, system-ui, sans-serif" font-size="17" font-weight="700" fill="#ffffff" text-anchor="middle">İMZALA</text>

  <!-- alt durum şeridi -->
  <rect x="30" y="468" width="760" height="48" rx="0" fill="#f4f7f9"/>
  <path d="M30 502 v0 a14 14 0 0 0 14 14 h732 a14 14 0 0 0 14 -14 v-48 H30 Z" fill="#f4f7f9"/>
  <circle cx="58" cy="492" r="6" fill="#3f8f43"/>
  <text x="74" y="497" font-family="Segoe UI, system-ui, sans-serif" font-size="13" fill="#5a6770">Kart hazır · TLS doğrulaması açık · PIN loglanmaz</text>
</svg>
